<mxfile host="app.diagrams.net" agent="Mozilla/5.0 (Windows NT 10.0; Win64; x64) AppleWebKit/537.36 (KHTML, like Gecko) Chrome/135.0.0.0 Safari/537.36" version="26.2.14" pages="3">
  <diagram id="C5RBs43oDa-KdzZeNtuy" name="Page-1">
    <mxGraphModel dx="427" dy="579" grid="1" gridSize="10" guides="1" tooltips="1" connect="1" arrows="1" fold="1" page="1" pageScale="1" pageWidth="827" pageHeight="1169" math="0" shadow="0">
      <root>
        <mxCell id="WIyWlLk6GJQsqaUBKTNV-0" />
        <mxCell id="WIyWlLk6GJQsqaUBKTNV-1" parent="WIyWlLk6GJQsqaUBKTNV-0" />
        <mxCell id="zkfFHV4jXpPFQw0GAbJ--0" value="Wizard" style="swimlane;fontStyle=2;align=center;verticalAlign=top;childLayout=stackLayout;horizontal=1;startSize=26;horizontalStack=0;resizeParent=1;resizeLast=0;collapsible=1;marginBottom=0;rounded=0;shadow=0;strokeWidth=1;strokeColor=#3399FF;" parent="WIyWlLk6GJQsqaUBKTNV-1" vertex="1">
          <mxGeometry x="120" y="100" width="180" height="240" as="geometry">
            <mxRectangle x="230" y="140" width="160" height="26" as="alternateBounds" />
          </mxGeometry>
        </mxCell>
        <mxCell id="zkfFHV4jXpPFQw0GAbJ--1" value="- string Name&#xa;- int Magic&#xa;- int Health&#xa;- list&lt;items&gt; items&#xa;- list&lt;libroDeHechizos&gt;" style="text;align=left;verticalAlign=top;spacingLeft=4;spacingRight=4;overflow=hidden;rotatable=0;points=[[0,0.5],[1,0.5]];portConstraint=eastwest;strokeColor=#3399FF;" parent="zkfFHV4jXpPFQw0GAbJ--0" vertex="1">
          <mxGeometry y="26" width="180" height="84" as="geometry" />
        </mxCell>
        <mxCell id="KYMnv3NJ2KJqxufDl0pC-1" value="+ int getAttack()&lt;div&gt;+ int getDefense()&lt;/div&gt;&lt;div&gt;+ void attack(wizard: Wizard)&lt;/div&gt;&lt;div&gt;+ void attack(elf: Elf)&lt;/div&gt;&lt;div&gt;+ void attack(dwarf: Dwarf)&lt;/div&gt;&lt;div&gt;+ void curar()&lt;/div&gt;&lt;div&gt;+ void addItem()&lt;/div&gt;&lt;div&gt;+ void rmItem()&lt;/div&gt;" style="text;html=1;align=left;verticalAlign=middle;resizable=0;points=[];autosize=1;strokeColor=none;fillColor=none;" parent="zkfFHV4jXpPFQw0GAbJ--0" vertex="1">
          <mxGeometry y="110" width="180" height="130" as="geometry" />
        </mxCell>
        <mxCell id="YJujrUxL9vRgNdatgJDr-1" style="edgeStyle=orthogonalEdgeStyle;rounded=0;orthogonalLoop=1;jettySize=auto;html=1;exitX=0.5;exitY=1;exitDx=0;exitDy=0;entryX=0.5;entryY=1;entryDx=0;entryDy=0;strokeColor=#FF66B3;" parent="WIyWlLk6GJQsqaUBKTNV-1" source="_ZwjO4mPsp3Safq0RyRB-23" target="_ZwjO4mPsp3Safq0RyRB-23" edge="1">
          <mxGeometry relative="1" as="geometry">
            <mxPoint x="380" y="530" as="targetPoint" />
            <Array as="points" />
          </mxGeometry>
        </mxCell>
        <mxCell id="_ZwjO4mPsp3Safq0RyRB-23" value="Items" style="swimlane;fontStyle=0;align=center;verticalAlign=top;childLayout=stackLayout;horizontal=1;startSize=26;horizontalStack=0;resizeParent=1;resizeLast=0;collapsible=1;marginBottom=0;rounded=0;shadow=0;strokeWidth=1;strokeColor=#FF66B3;" parent="WIyWlLk6GJQsqaUBKTNV-1" vertex="1">
          <mxGeometry x="320" y="410" width="180" height="140" as="geometry">
            <mxRectangle x="550" y="140" width="160" height="26" as="alternateBounds" />
          </mxGeometry>
        </mxCell>
        <mxCell id="_ZwjO4mPsp3Safq0RyRB-24" value="- string name&#xa;- int attack&#xa;- int defense &#xa;" style="text;align=left;verticalAlign=top;spacingLeft=4;spacingRight=4;overflow=hidden;rotatable=0;points=[[0,0.5],[1,0.5]];portConstraint=eastwest;strokeColor=#FF66B3;" parent="_ZwjO4mPsp3Safq0RyRB-23" vertex="1">
          <mxGeometry y="26" width="180" height="54" as="geometry" />
        </mxCell>
        <mxCell id="KYMnv3NJ2KJqxufDl0pC-4" value="+ int getAttack()&lt;div&gt;+ int getDefense()&lt;/div&gt;&lt;div&gt;&lt;br&gt;&lt;/div&gt;" style="text;html=1;align=left;verticalAlign=middle;resizable=0;points=[];autosize=1;strokeColor=#FF66B3;fillColor=none;" parent="_ZwjO4mPsp3Safq0RyRB-23" vertex="1">
          <mxGeometry y="80" width="180" height="60" as="geometry" />
        </mxCell>
        <mxCell id="_ZwjO4mPsp3Safq0RyRB-36" value="Elf" style="swimlane;fontStyle=2;align=center;verticalAlign=top;childLayout=stackLayout;horizontal=1;startSize=26;horizontalStack=0;resizeParent=1;resizeLast=0;collapsible=1;marginBottom=0;rounded=0;shadow=0;strokeWidth=1;strokeColor=#FF3333;" parent="WIyWlLk6GJQsqaUBKTNV-1" vertex="1">
          <mxGeometry x="320" y="100" width="180" height="240" as="geometry">
            <mxRectangle x="230" y="140" width="160" height="26" as="alternateBounds" />
          </mxGeometry>
        </mxCell>
        <mxCell id="_ZwjO4mPsp3Safq0RyRB-37" value="- string Name&#xa;- int Magic&#xa;- int Health&#xa;- list&lt;items&gt; items" style="text;align=left;verticalAlign=top;spacingLeft=4;spacingRight=4;overflow=hidden;rotatable=0;points=[[0,0.5],[1,0.5]];portConstraint=eastwest;strokeColor=#FF3333;" parent="_ZwjO4mPsp3Safq0RyRB-36" vertex="1">
          <mxGeometry y="26" width="180" height="84" as="geometry" />
        </mxCell>
        <mxCell id="pkeWLlGJACupN_B3jzcs-4" value="+ int getAttack()&lt;div&gt;+ int getDefense()&lt;/div&gt;&lt;div&gt;+ void attack(wizard: Wizard)&lt;/div&gt;&lt;div&gt;+ void attack(elf: Elf)&lt;/div&gt;&lt;div&gt;+ void attack(dwarf: Dwarf)&lt;/div&gt;&lt;div&gt;+ void curar()&lt;/div&gt;&lt;div&gt;&lt;div&gt;+ void addItem()&lt;/div&gt;&lt;div&gt;+ void rmItem()&lt;/div&gt;&lt;/div&gt;" style="text;html=1;align=left;verticalAlign=middle;resizable=0;points=[];autosize=1;strokeColor=none;fillColor=none;" parent="_ZwjO4mPsp3Safq0RyRB-36" vertex="1">
          <mxGeometry y="110" width="180" height="130" as="geometry" />
        </mxCell>
        <mxCell id="_ZwjO4mPsp3Safq0RyRB-40" value="Dwarf" style="swimlane;fontStyle=2;align=center;verticalAlign=top;childLayout=stackLayout;horizontal=1;startSize=26;horizontalStack=0;resizeParent=1;resizeLast=0;collapsible=1;marginBottom=0;rounded=0;shadow=0;strokeWidth=1;strokeColor=#33FF33;" parent="WIyWlLk6GJQsqaUBKTNV-1" vertex="1">
          <mxGeometry x="520" y="100" width="180" height="240" as="geometry">
            <mxRectangle x="230" y="140" width="160" height="26" as="alternateBounds" />
          </mxGeometry>
        </mxCell>
        <mxCell id="_ZwjO4mPsp3Safq0RyRB-41" value="- string Name&#xa;- int health&#xa;- list&lt;items&gt; Items&#xa;&#xa;" style="text;align=left;verticalAlign=top;spacingLeft=4;spacingRight=4;overflow=hidden;rotatable=0;points=[[0,0.5],[1,0.5]];portConstraint=eastwest;strokeColor=#33FF33;" parent="_ZwjO4mPsp3Safq0RyRB-40" vertex="1">
          <mxGeometry y="26" width="180" height="84" as="geometry" />
        </mxCell>
        <mxCell id="KYMnv3NJ2KJqxufDl0pC-3" value="+ int getAttack()&lt;div&gt;+ int getDefense()&lt;/div&gt;&lt;div&gt;+ void attack(wizard: Wizard)&lt;/div&gt;&lt;div&gt;+ void attack(elf: Elf)&lt;/div&gt;&lt;div&gt;+ void attack(dwarf: Dwarf)&lt;/div&gt;&lt;div&gt;+ void curar()&lt;/div&gt;&lt;div&gt;&lt;div&gt;+ void addItem()&lt;/div&gt;&lt;div&gt;+ void rmItem()&lt;/div&gt;&lt;/div&gt;" style="text;html=1;align=left;verticalAlign=middle;resizable=0;points=[];autosize=1;strokeColor=none;fillColor=none;" parent="_ZwjO4mPsp3Safq0RyRB-40" vertex="1">
          <mxGeometry y="110" width="180" height="130" as="geometry" />
        </mxCell>
        <mxCell id="KYMnv3NJ2KJqxufDl0pC-0" value="&lt;font style=&quot;font-size: 16px;&quot;&gt;&lt;b&gt;&lt;u&gt;Diagrama UML&lt;/u&gt;&lt;/b&gt;&lt;/font&gt;&lt;div style=&quot;font-size: 16px;&quot;&gt;&lt;font style=&quot;font-size: 16px;&quot;&gt;&lt;b&gt;&lt;u&gt;RolePlay&lt;/u&gt;&lt;/b&gt;&lt;/font&gt;&lt;/div&gt;" style="text;html=1;align=center;verticalAlign=middle;whiteSpace=wrap;rounded=0;" parent="WIyWlLk6GJQsqaUBKTNV-1" vertex="1">
          <mxGeometry x="292" y="40" width="216" height="30" as="geometry" />
        </mxCell>
        <mxCell id="5_5jG9F8S_kqfnz2E97n-4" style="edgeStyle=orthogonalEdgeStyle;rounded=0;orthogonalLoop=1;jettySize=auto;html=1;exitX=0.5;exitY=1;exitDx=0;exitDy=0;entryX=0.5;entryY=1;entryDx=0;entryDy=0;strokeColor=#B266FF;" parent="WIyWlLk6GJQsqaUBKTNV-1" source="5_5jG9F8S_kqfnz2E97n-5" target="5_5jG9F8S_kqfnz2E97n-5" edge="1">
          <mxGeometry relative="1" as="geometry">
            <mxPoint x="201" y="530" as="targetPoint" />
            <Array as="points" />
          </mxGeometry>
        </mxCell>
        <mxCell id="5_5jG9F8S_kqfnz2E97n-5" value="Libro Mágico" style="swimlane;fontStyle=0;align=center;verticalAlign=top;childLayout=stackLayout;horizontal=1;startSize=26;horizontalStack=0;resizeParent=1;resizeLast=0;collapsible=1;marginBottom=0;rounded=0;shadow=0;strokeWidth=1;strokeColor=#B266FF;" parent="WIyWlLk6GJQsqaUBKTNV-1" vertex="1">
          <mxGeometry x="120" y="410" width="180" height="140" as="geometry">
            <mxRectangle x="550" y="140" width="160" height="26" as="alternateBounds" />
          </mxGeometry>
        </mxCell>
        <mxCell id="5_5jG9F8S_kqfnz2E97n-6" value="- dictionary&lt;str name &#xa;int power&gt; spell" style="text;align=left;verticalAlign=top;spacingLeft=4;spacingRight=4;overflow=hidden;rotatable=0;points=[[0,0.5],[1,0.5]];portConstraint=eastwest;strokeColor=#B266FF;" parent="5_5jG9F8S_kqfnz2E97n-5" vertex="1">
          <mxGeometry y="26" width="180" height="54" as="geometry" />
        </mxCell>
        <mxCell id="5_5jG9F8S_kqfnz2E97n-8" value="+ int attack()&lt;div&gt;+ void addSpell()&lt;/div&gt;&lt;div&gt;+ void rmSpell()&lt;/div&gt;" style="text;html=1;align=left;verticalAlign=middle;resizable=0;points=[];autosize=1;strokeColor=#B266FF;fillColor=none;" parent="5_5jG9F8S_kqfnz2E97n-5" vertex="1">
          <mxGeometry y="80" width="180" height="60" as="geometry" />
        </mxCell>
        <mxCell id="_czdTu5cDBtiy0Rzdi1w-9" value="Spells" style="swimlane;fontStyle=0;align=center;verticalAlign=top;childLayout=stackLayout;horizontal=1;startSize=26;horizontalStack=0;resizeParent=1;resizeLast=0;collapsible=1;marginBottom=0;rounded=0;shadow=0;strokeWidth=1;strokeColor=#FF9933;" parent="WIyWlLk6GJQsqaUBKTNV-1" vertex="1">
          <mxGeometry x="120" y="600" width="160" height="110" as="geometry">
            <mxRectangle x="550" y="140" width="160" height="26" as="alternateBounds" />
          </mxGeometry>
        </mxCell>
        <mxCell id="_czdTu5cDBtiy0Rzdi1w-10" value="- string name&#xa;- int attack" style="text;align=left;verticalAlign=top;spacingLeft=4;spacingRight=4;overflow=hidden;rotatable=0;points=[[0,0.5],[1,0.5]];portConstraint=eastwest;strokeColor=#FF9933;" parent="_czdTu5cDBtiy0Rzdi1w-9" vertex="1">
          <mxGeometry y="26" width="160" height="54" as="geometry" />
        </mxCell>
        <mxCell id="_czdTu5cDBtiy0Rzdi1w-11" value="+ int getAttack()" style="text;html=1;align=left;verticalAlign=middle;resizable=0;points=[];autosize=1;strokeColor=#FF9933;fillColor=none;" parent="_czdTu5cDBtiy0Rzdi1w-9" vertex="1">
          <mxGeometry y="80" width="160" height="30" as="geometry" />
        </mxCell>
        <mxCell id="pkeWLlGJACupN_B3jzcs-6" style="edgeStyle=orthogonalEdgeStyle;rounded=0;orthogonalLoop=1;jettySize=auto;html=1;entryX=0.5;entryY=0;entryDx=0;entryDy=0;strokeColor=#B266FF;" parent="WIyWlLk6GJQsqaUBKTNV-1" edge="1">
          <mxGeometry relative="1" as="geometry">
            <mxPoint x="200" y="549.9999999999999" as="sourcePoint" />
            <mxPoint x="200" y="600.0000000000001" as="targetPoint" />
          </mxGeometry>
        </mxCell>
        <mxCell id="KYMnv3NJ2KJqxufDl0pC-11" value="1...*" style="edgeLabel;html=1;align=center;verticalAlign=middle;resizable=0;points=[];" parent="pkeWLlGJACupN_B3jzcs-6" connectable="0" vertex="1">
          <mxGeometry x="-0.4194" y="-8" relative="1" as="geometry">
            <mxPoint x="8" y="9" as="offset" />
          </mxGeometry>
        </mxCell>
        <mxCell id="aMt1Kbf87NE8NQmkmt7V-10" style="edgeStyle=orthogonalEdgeStyle;rounded=0;orthogonalLoop=1;jettySize=auto;html=1;entryX=0.5;entryY=0;entryDx=0;entryDy=0;strokeColor=#FF3333;" parent="WIyWlLk6GJQsqaUBKTNV-1" source="pkeWLlGJACupN_B3jzcs-4" target="_ZwjO4mPsp3Safq0RyRB-23" edge="1">
          <mxGeometry relative="1" as="geometry" />
        </mxCell>
        <mxCell id="KYMnv3NJ2KJqxufDl0pC-12" value="1...*" style="edgeLabel;html=1;align=center;verticalAlign=middle;resizable=0;points=[];" parent="aMt1Kbf87NE8NQmkmt7V-10" connectable="0" vertex="1">
          <mxGeometry x="0.0571" y="-1" relative="1" as="geometry">
            <mxPoint as="offset" />
          </mxGeometry>
        </mxCell>
        <mxCell id="aMt1Kbf87NE8NQmkmt7V-12" style="edgeStyle=orthogonalEdgeStyle;rounded=0;orthogonalLoop=1;jettySize=auto;html=1;entryX=0.5;entryY=0;entryDx=0;entryDy=0;strokeColor=#007FFF;" parent="WIyWlLk6GJQsqaUBKTNV-1" source="KYMnv3NJ2KJqxufDl0pC-1" target="5_5jG9F8S_kqfnz2E97n-5" edge="1">
          <mxGeometry relative="1" as="geometry" />
        </mxCell>
        <mxCell id="aMt1Kbf87NE8NQmkmt7V-16" value="1...*" style="edgeLabel;html=1;align=center;verticalAlign=middle;resizable=0;points=[];" parent="aMt1Kbf87NE8NQmkmt7V-12" connectable="0" vertex="1">
          <mxGeometry x="0.4602" relative="1" as="geometry">
            <mxPoint as="offset" />
          </mxGeometry>
        </mxCell>
        <mxCell id="aMt1Kbf87NE8NQmkmt7V-13" style="edgeStyle=orthogonalEdgeStyle;rounded=0;orthogonalLoop=1;jettySize=auto;html=1;entryX=0.75;entryY=0;entryDx=0;entryDy=0;fillColor=#33FF33;strokeColor=#33FF33;" parent="WIyWlLk6GJQsqaUBKTNV-1" source="KYMnv3NJ2KJqxufDl0pC-3" target="_ZwjO4mPsp3Safq0RyRB-23" edge="1">
          <mxGeometry relative="1" as="geometry">
            <Array as="points">
              <mxPoint x="610" y="370" />
              <mxPoint x="455" y="370" />
            </Array>
          </mxGeometry>
        </mxCell>
        <mxCell id="aMt1Kbf87NE8NQmkmt7V-17" value="1...*" style="edgeLabel;html=1;align=center;verticalAlign=middle;resizable=0;points=[];" parent="aMt1Kbf87NE8NQmkmt7V-13" connectable="0" vertex="1">
          <mxGeometry x="-0.0367" y="1" relative="1" as="geometry">
            <mxPoint as="offset" />
          </mxGeometry>
        </mxCell>
        <mxCell id="aMt1Kbf87NE8NQmkmt7V-14" style="edgeStyle=orthogonalEdgeStyle;rounded=0;orthogonalLoop=1;jettySize=auto;html=1;entryX=0.25;entryY=0;entryDx=0;entryDy=0;strokeColor=#007FFF;" parent="WIyWlLk6GJQsqaUBKTNV-1" source="KYMnv3NJ2KJqxufDl0pC-1" target="_ZwjO4mPsp3Safq0RyRB-23" edge="1">
          <mxGeometry relative="1" as="geometry">
            <Array as="points">
              <mxPoint x="210" y="370" />
              <mxPoint x="365" y="370" />
            </Array>
          </mxGeometry>
        </mxCell>
        <mxCell id="aMt1Kbf87NE8NQmkmt7V-15" value="1...*" style="edgeLabel;html=1;align=center;verticalAlign=middle;resizable=0;points=[];" parent="aMt1Kbf87NE8NQmkmt7V-14" connectable="0" vertex="1">
          <mxGeometry x="-0.0798" relative="1" as="geometry">
            <mxPoint as="offset" />
          </mxGeometry>
        </mxCell>
      </root>
    </mxGraphModel>
  </diagram>
  <diagram id="iJeHb44RR2tsSGFgHpXd" name="Page-2">
    <mxGraphModel grid="1" page="1" gridSize="10" guides="1" tooltips="1" connect="1" arrows="1" fold="1" pageScale="1" pageWidth="827" pageHeight="1169" math="0" shadow="0">
      <root>
        <mxCell id="0" />
        <mxCell id="1" parent="0" />
      </root>
    </mxGraphModel>
  </diagram>
  <diagram id="4Aw1c_QSMI46jdPabMJE" name="Page-3">
    <mxGraphModel grid="1" page="1" gridSize="10" guides="1" tooltips="1" connect="1" arrows="1" fold="1" pageScale="1" pageWidth="827" pageHeight="1169" math="0" shadow="0">
      <root>
        <mxCell id="0" />
        <mxCell id="1" parent="0" />
      </root>
    </mxGraphModel>
  </diagram>
</mxfile>
